<?xml version="1.0" encoding="utf-8"?><svg viewBox="0 0 191 59" xmlns="http://www.w3.org/2000/svg" xmlns:xlink="http://www.w3.org/1999/xlink"><style>:root>svg{display:none}:root>svg:target{display:block}</style><svg fill="none" viewBox="0 0 12 14" id="Vector" xmlns="http://www.w3.org/2000/svg"><path d="M10.667 1.75h-.584V.583H8.917V1.75H3.083V.583H1.917V1.75h-.584A1.17 1.17 0 00.167 2.917v9.333a1.17 1.17 0 001.166 1.167h9.334a1.17 1.17 0 001.166-1.167V2.917a1.17 1.17 0 00-1.166-1.167zm0 10.5H1.333V4.667h9.334v7.583z" fill="#fff"/></svg><svg fill="none" viewBox="0 0 14 14" id="calendar" xmlns="http://www.w3.org/2000/svg"><path d="M11.667 1.75h-.584V.583H9.917V1.75H4.083V.583H2.917V1.75h-.584a1.17 1.17 0 00-1.166 1.167v9.333a1.17 1.17 0 001.166 1.167h9.334a1.17 1.17 0 001.166-1.167V2.917a1.17 1.17 0 00-1.166-1.167zm0 10.5H2.333V4.667h9.334v7.583z" fill="#999"/></svg><svg fill="none" viewBox="0 0 12 12" id="location" xmlns="http://www.w3.org/2000/svg"><circle cx="6" cy="6" r="6" fill="#FF6E30"/></svg><svg fill="none" viewBox="0 0 191 31" id="logo" xmlns="http://www.w3.org/2000/svg"><path d="M43 25V4h5.55v7.8h8.1V4h5.55v21h-5.55v-8.1h-8.1V25H43zM65.486 5.2c0-.72.27-1.32.81-1.8.54-.5 1.22-.75 2.04-.75.82 0 1.5.25 2.04.75.54.48.81 1.08.81 1.8 0 .7-.27 1.3-.81 1.8s-1.22.75-2.04.75c-.82 0-1.5-.25-2.04-.75s-.81-1.1-.81-1.8zm.3 19.8V9.4h5.1V25h-5.1zM75.454 22.63c-1.34-1.48-2.01-3.39-2.01-5.73 0-2.34.67-4.25 2.01-5.73 1.34-1.48 2.97-2.22 4.89-2.22 1.38 0 2.57.4 3.57 1.2.46.36.82.76 1.08 1.2h.3V9.4h5.1v21.3h-14.85v-4.05h9.75V22.6h-.3c-.28.44-.64.82-1.08 1.14-.98.74-2.17 1.11-3.57 1.11-1.92 0-3.55-.74-4.89-2.22zm4.14-8.37c-.6.64-.9 1.52-.9 2.64s.3 2 .9 2.64c.6.64 1.4.96 2.4.96s1.8-.32 2.4-.96c.6-.64.9-1.52.9-2.64s-.3-2-.9-2.64c-.6-.64-1.4-.96-2.4-.96s-1.8.32-2.4.96zM93.38 25V4h5.1v7.5h.3c.28-.48.64-.9 1.08-1.26 1.02-.86 2.21-1.29 3.57-1.29 1.84 0 3.27.56 4.29 1.68 1.04 1.1 1.56 2.69 1.56 4.77V25h-5.1v-8.85c0-.9-.24-1.6-.72-2.1s-1.14-.75-1.98-.75c-.86 0-1.58.32-2.16.96-.56.62-.84 1.45-.84 2.49V25h-5.1zM120.538 30.7V9.4h5.1v2.1h.3c.28-.46.66-.88 1.14-1.26 1.1-.86 2.27-1.29 3.51-1.29 1.92 0 3.55.76 4.89 2.28 1.34 1.5 2.01 3.49 2.01 5.97 0 2.48-.67 4.48-2.01 6-1.34 1.5-2.97 2.25-4.89 2.25-1.26 0-2.43-.42-3.51-1.26a4.61 4.61 0 01-1.14-1.29h-.3v7.8h-5.1zm6-16.38c-.6.68-.9 1.64-.9 2.88s.3 2.2.9 2.88c.6.68 1.4 1.02 2.4 1.02s1.8-.34 2.4-1.02c.6-.68.9-1.64.9-2.88s-.3-2.2-.9-2.88c-.6-.68-1.4-1.02-2.4-1.02s-1.8.34-2.4 1.02zM141.284 23.2c-1.34-1.52-2.01-3.52-2.01-6s.67-4.47 2.01-5.97c1.34-1.52 2.97-2.28 4.89-2.28 1.24 0 2.41.43 3.51 1.29.46.38.84.8 1.14 1.26h.3V9.4h5.1V25h-5.1v-2.1h-.3c-.28.48-.66.91-1.14 1.29-1.08.84-2.25 1.26-3.51 1.26-1.92 0-3.55-.75-4.89-2.25zm4.14-8.88c-.6.68-.9 1.64-.9 2.88s.3 2.2.9 2.88c.6.68 1.4 1.02 2.4 1.02s1.8-.34 2.4-1.02c.6-.68.9-1.64.9-2.88s-.3-2.2-.9-2.88c-.6-.68-1.4-1.02-2.4-1.02s-1.8.34-2.4 1.02zM158.31 19.9h5.1c.08.3.25.58.51.84.54.54 1.32.81 2.34.81 1.4 0 2.1-.35 2.1-1.05 0-.32-.2-.57-.6-.75-.4-.2-1-.4-1.8-.6-.66-.16-1.09-.26-1.29-.3-.2-.04-.62-.15-1.26-.33-.64-.2-1.1-.37-1.38-.51-.26-.16-.63-.38-1.11-.66-.46-.3-.8-.6-1.02-.9-.2-.32-.39-.71-.57-1.17-.18-.48-.27-.99-.27-1.53 0-1.32.59-2.45 1.77-3.39 1.18-.94 2.84-1.41 4.98-1.41 2.68 0 4.8.88 6.36 2.64a6.53 6.53 0 011.29 2.61h-4.95c-.12-.32-.26-.57-.42-.75-.46-.5-1.12-.75-1.98-.75-1.2 0-1.8.35-1.8 1.05 0 .34.2.6.6.78.4.18 1.01.35 1.83.51 2.06.48 3.45.9 4.17 1.26 1.8.88 2.7 2.23 2.7 4.05 0 1.44-.64 2.65-1.92 3.63-1.26.98-3.07 1.47-5.43 1.47-2.9 0-5.11-.92-6.63-2.76a6.113 6.113 0 01-1.32-2.79zM174.951 19.9h5.1c.08.3.25.58.51.84.54.54 1.32.81 2.34.81 1.4 0 2.1-.35 2.1-1.05 0-.32-.2-.57-.6-.75-.4-.2-1-.4-1.8-.6-.66-.16-1.09-.26-1.29-.3-.2-.04-.62-.15-1.26-.33-.64-.2-1.1-.37-1.38-.51-.26-.16-.63-.38-1.11-.66-.46-.3-.8-.6-1.02-.9-.2-.32-.39-.71-.57-1.17-.18-.48-.27-.99-.27-1.53 0-1.32.59-2.45 1.77-3.39 1.18-.94 2.84-1.41 4.98-1.41 2.68 0 4.8.88 6.36 2.64a6.53 6.53 0 011.29 2.61h-4.95c-.12-.32-.26-.57-.42-.75-.46-.5-1.12-.75-1.98-.75-1.2 0-1.8.35-1.8 1.05 0 .34.2.6.6.78.4.18 1.01.35 1.83.51 2.06.48 3.45.9 4.17 1.26 1.8.88 2.7 2.23 2.7 4.05 0 1.44-.64 2.65-1.92 3.63-1.26.98-3.07 1.47-5.43 1.47-2.9 0-5.11-.92-6.63-2.76a6.113 6.113 0 01-1.32-2.79z" fill="#fff"/><path fill-rule="evenodd" clip-rule="evenodd" d="M6 6v18h18L6 6zM0 0v30h30V0H0z" fill="#FF6E30"/></svg><svg fill="none" viewBox="0 0 116 59" id="sale" xmlns="http://www.w3.org/2000/svg"><path d="M114.5 29.5c0 7.285-5.841 14.27-16.168 19.523C88.088 54.233 73.83 57.5 58 57.5c-15.83 0-30.088-3.267-40.332-8.477C7.34 43.77 1.5 36.785 1.5 29.5S7.34 15.23 17.668 9.977C27.912 4.767 42.17 1.5 58 1.5c15.83 0 30.088 3.267 40.332 8.477C108.66 15.23 114.5 22.215 114.5 29.5z" stroke="#FFF500" stroke-width="3"/><path d="M19 32.46v-4.163h11.536v4.162H19zM33.057 38.405V33.65l6.951-4.311c1.637-.991 2.78-1.853 3.431-2.587.671-.753 1.006-1.526 1.006-2.319 0-.693-.246-1.258-.74-1.694-.473-.456-1.113-.684-1.922-.684-1.242 0-2.16.397-2.75 1.19-.238.316-.405.713-.504 1.188h-5.62a9.232 9.232 0 011.39-3.716C35.916 18.24 38.412 17 41.784 17c2.603 0 4.654.674 6.152 2.022 1.519 1.347 2.278 3.052 2.278 5.113 0 1.705-.483 3.171-1.45 4.4-.965 1.21-2.405 2.369-4.318 3.479l-2.07 1.189-1.184.446v.297l2.071-.297h6.951v4.756H33.057zM55.516 35.938c-1.952-2.042-2.928-4.688-2.928-7.938s.976-5.896 2.928-7.938C57.488 18.021 59.963 17 62.94 17c2.978 0 5.443 1.02 7.395 3.062 1.972 2.042 2.958 4.688 2.958 7.938s-.986 5.896-2.958 7.938C68.383 37.979 65.918 39 62.94 39c-2.977 0-5.452-1.02-7.424-3.062zm4.082-12.368c-.828 1.011-1.242 2.488-1.242 4.43 0 1.942.414 3.419 1.242 4.43.828 1.01 1.942 1.516 3.342 1.516 1.4 0 2.515-.505 3.343-1.516.828-1.011 1.242-2.488 1.242-4.43 0-1.942-.414-3.419-1.242-4.43-.828-1.01-1.942-1.516-3.343-1.516-1.4 0-2.514.506-3.342 1.516zM76.999 25.949c-.986-.972-1.48-2.17-1.48-3.598 0-1.427.494-2.626 1.48-3.597.986-.971 2.218-1.457 3.697-1.457s2.712.486 3.698 1.457c.985.971 1.478 2.17 1.478 3.597s-.493 2.627-1.478 3.598c-.987.97-2.219 1.456-3.698 1.456S77.985 26.92 77 25.95zm1.627 12.456l12.423-20.81h3.845l-12.423 20.81h-3.846zm.798-17.332c-.335.337-.503.763-.503 1.278 0 .516.168.942.503 1.279.335.337.76.505 1.272.505.513 0 .937-.168 1.272-.505.335-.337.503-.763.503-1.279 0-.515-.168-.941-.503-1.278-.335-.337-.76-.505-1.272-.505-.513 0-.937.168-1.272.505zm9.702 16.173c-.986-.971-1.479-2.17-1.479-3.597s.493-2.627 1.48-3.598c.985-.97 2.218-1.456 3.697-1.456s2.711.485 3.697 1.456c.986.972 1.479 2.17 1.479 3.598 0 1.427-.493 2.626-1.479 3.597-.986.971-2.218 1.457-3.697 1.457-1.48 0-2.712-.486-3.698-1.457zm2.426-4.876c-.336.337-.503.763-.503 1.279 0 .515.167.941.503 1.278.335.337.759.505 1.272.505.512 0 .936-.168 1.272-.505.335-.337.502-.763.502-1.278 0-.516-.167-.942-.502-1.279-.336-.337-.76-.505-1.272-.505-.513 0-.937.168-1.272.505z" fill="#FFF500"/></svg></svg>